<svg xmlns="http://www.w3.org/2000/svg" viewBox="0 0 370.4 77.06"><defs><style>.cls-1{fill:#2f3d60;}.cls-2{fill:#68a853;}</style></defs><g id="Layer_2" data-name="Layer 2"><g id="Layer_1-2" data-name="Layer 1"><path class="cls-1" d="M73.78,75.85c-6.58,2.2-12.52,1.21-18.28-1.53a48.28,48.28,0,0,1-13.25-9.84c-1-1-.93-1.55,0-2.51a96,96,0,0,0,9.45-10.08c10.07-13.32,4-32.3-11.52-36.1A20.28,20.28,0,0,0,18,24.72a22.58,22.58,0,0,0,.33,24.93,3.14,3.14,0,0,1,0,4.11c-1.78,2.71-4,5-6.24,7.82,4.78.3,9.2.14,13.48-1.42a1.58,1.58,0,0,1,2.12.5c2.25,2.44,4.63,4.75,7,7,1,.93.82,1.43-.09,2.26-4.39,4-11.77,4.83-16.76,1.11C2.8,59.76-4.2,43.66,2.61,23.85,7.81,8.75,23.19-1.17,38.46.11c16,1.35,28.68,12.68,31.93,29A38.34,38.34,0,0,1,65,58.2c-.22.34-.45.68-.7,1-3.2,4-3.22,4.28-.46,8.61A20,20,0,0,0,73.78,75.85Z"/><path class="cls-1" d="M160.76,72.6c-5.84,0-11.67.11-17.5,0-7.28-.17-13-6.13-13.67-14.09-.69-7.79,3.95-15,10.75-16.5a19,19,0,0,1,4-.29c6.7,0,13.41-.06,20.11,0,1.52,0,2-.39,2-2.06-.06-4.61-2.71-7.77-7.1-7.83-8-.1-16.09-.12-24.12,0-1.95,0-2.43-.64-2.32-2.53.14-2.39.08-4.8,0-7.2,0-1.33.25-1.92,1.69-1.9,9.61.11,19.24-.05,28.85.23S179.73,27.7,180,37.82c.27,11,.13,22,.24,33.06,0,1.44-.42,1.79-1.72,1.77-5.92-.06-11.83,0-17.74,0ZM157,61.84v0c2.59,0,5.19-.05,7.78,0,1.19,0,1.69-.32,1.64-1.66-.09-2.31-.06-4.63,0-6.94,0-1.1-.17-1.64-1.4-1.62-5.35.06-10.7,0-16,.07a5.21,5.21,0,0,0-5.28,5.2c0,2.65,2.18,4.74,5.27,4.86C151.65,61.92,154.32,61.84,157,61.84Z"/><path class="cls-2" d="M330.55,72.61c-5.75,0-11.51.1-17.26,0-7.27-.16-13-5.92-13.83-13.68S303,44.06,309.61,42.09a12.3,12.3,0,0,1,3.51-.36c7,0,14-.08,21.05,0,1.66,0,2.16-.52,2.12-2.25-.1-4.56-2.78-7.58-7.27-7.64q-11.82-.15-23.65,0c-1.94,0-2.68-.49-2.52-2.6.17-2.39.08-4.81,0-7.21,0-1.26.4-1.78,1.64-1.76,9.93.09,19.88-.18,29.79.28,8.91.42,15.28,7.47,15.53,16.85.31,11.26.19,22.54.31,33.8,0,1.62-.89,1.45-1.85,1.45ZM327,51.71v0c-2.68,0-5.35-.08-8,0a5.34,5.34,0,0,0-5.37,5.13,5.06,5.06,0,0,0,5.25,4.89c5.26.11,10.53,0,15.79.08,1.18,0,1.71-.37,1.67-1.69-.07-2.23-.1-4.47,0-6.69.07-1.49-.52-1.82-1.79-1.78C332,51.77,329.46,51.71,327,51.71Z"/><path class="cls-1" d="M123.72,46.54c0,8,0,15.92,0,23.88,0,1.63-.25,2.27-2,2.25-9-.11-18,0-27-.1a30.21,30.21,0,0,1-6.57-.66A14.45,14.45,0,0,1,77.4,58.17c-.28-12.17-.11-24.36-.18-36.55,0-1.38.68-1.4,1.63-1.39,3.23,0,6.47.11,9.69,0,1.67-.08,2.1.47,2.09,2.2-.08,10.36,0,20.72,0,31.08,0,4.76,2.58,7.55,7.11,7.62,3.55.06,7.1-.09,10.65.06,1.76.08,2.06-.63,2.05-2.26-.05-12,0-24-.08-36.06,0-2.31.64-2.77,2.63-2.65a89.86,89.86,0,0,0,9,0c1.52-.07,1.82.5,1.81,2C123.69,30.3,123.72,38.42,123.72,46.54Z"/><path class="cls-1" d="M276.48,72.62c-6.08,0-11.83,0-17.59,0a2.55,2.55,0,0,1-2.13-1.25c-6.17-7.64-12.32-15.3-18.55-22.88-.94-1.14-.84-1.79,0-2.88q9.31-12.06,18.53-24.2a3.09,3.09,0,0,1,2.71-1.54c5.52.09,11,0,16.55,0,.36.92-.4,1.21-.77,1.65-6.53,7.75-13.05,15.52-19.65,23.21-1.14,1.33-1.33,2.13,0,3.57,5.78,6.45,11.43,13,17.11,19.59C273.89,69.38,275.05,70.87,276.48,72.62Z"/><path class="cls-1" d="M222.91,37.13c0-11,0-22,0-33.06,0-1.71.4-2.28,2.09-2.2,3.22.15,6.46.1,9.69,0,1.26,0,1.8.21,1.8,1.72q-.06,33.69,0,67.37c0,1.32-.37,1.7-1.6,1.67-3.31-.08-6.62-.13-9.93,0-1.69.08-2.07-.52-2.06-2.22.08-11.1,0-22.2,0-33.31Z"/><path class="cls-1" d="M201.44,26.31c3-5.37,7.56-6.91,12.93-6.91,1.56,0,2.2.62,2.1,2.38-.14,2.64-.1,5.3,0,7.94.05,1.43-.4,1.84-1.73,1.81-3.7-.08-7.41.07-11.11-.07-1.76-.06-2.26.48-2.25,2.36.09,12.17,0,24.34.09,36.51,0,1.83-.38,2.43-2.18,2.33-3.22-.16-6.46-.08-9.69,0-1.11,0-1.5-.33-1.49-1.54q0-24.58,0-49.18c0-1.3.38-1.73,1.61-1.71,3.31.06,6.62.1,9.92,0,1.52-.06,1.92.53,1.81,2S201.44,24.93,201.44,26.31Z"/><path class="cls-2" d="M356.71,46.23c0-7.95,0-15.9,0-23.85,0-1.77.54-2.3,2.17-2.25,3.15.1,6.3.09,9.45,0,1.49-.05,1.85.52,1.84,2q-.06,24.33,0,48.68c0,1.45-.46,1.87-1.76,1.84-3.15-.07-6.31-.12-9.45,0-1.74.08-2.31-.45-2.29-2.35.1-8,0-16.06,0-24.09Z"/><path class="cls-2" d="M16.94,59.34c1.26-1.78,2.47-3.47,3.66-5.19s1.44-3.17,0-5.24A19.27,19.27,0,0,1,19,28.11c3.6-7.26,9.66-10.79,17.38-10.63,9.65.2,17.46,8.45,18.1,18.73.62,9.91-6.39,18.93-15.91,20.57a12.13,12.13,0,0,1-5.62,0,8.45,8.45,0,0,0-6.73.79A18.16,18.16,0,0,1,16.94,59.34ZM23.1,55a3.17,3.17,0,0,0,3.46-.86c1.85-1.59,3.66-1.74,6.05-1.15,10.87,2.66,20.57-7.82,18-19.28-1.37-6.19-6.38-11.35-12-12.33A15.29,15.29,0,0,0,22.3,29.17a16.22,16.22,0,0,0,1.26,18.11,4.57,4.57,0,0,1,.66,5.17Z"/><path class="cls-1" d="M287.07,72.62c-1.74,0-3.47-.08-5.2,0-1.3.08-1.58-.46-1.55-1.72.08-3.14.08-6.29,0-9.43,0-1.34.45-1.71,1.64-1.69q5.19.09,10.4,0c1.16,0,1.71.25,1.67,1.64-.08,3.22-.08,6.46,0,9.68,0,1.27-.46,1.54-1.52,1.5C290.69,72.57,288.88,72.62,287.07,72.62Z"/><path class="cls-2" d="M363.78,1.9c1.78.26,4.57-1,6,.54s.34,4.27.35,6.48c.05,5.45,0,5.45-5.11,5.45-2.21,0-4.42,0-6.62,0-1.22,0-1.7-.44-1.68-1.71,0-3.07.05-6.13,0-9.19,0-1.18.4-1.64,1.52-1.6C359.93,1.94,361.66,1.9,363.78,1.9Z"/><path class="cls-2" d="M44.66,30.19a3.65,3.65,0,0,1-1,1.91c-3,3.93-6.06,7.83-9,11.8-1.21,1.63-2.25,1.89-3.59.25S28.29,41,26.9,39.39c-.72-.83-1.07-1.72-.18-2.6a1.62,1.62,0,0,1,2.67.17c.05.06.09.13.15.19,1.19,1,1.81,3.42,3.26,3.06,1.21-.3,2-2.34,3-3.63,1.83-2.38,3.63-4.78,5.47-7.15.57-.72,1.27-1.32,2.24-.93A1.63,1.63,0,0,1,44.66,30.19Z"/></g></g></svg>