<svg xmlns="http://www.w3.org/2000/svg" viewBox="0 0 885.37 175.1"><defs><style>.cls-1{fill:#fff;}.cls-2{fill:#68a853;}</style></defs><g id="Layer_2" data-name="Layer 2"><g id="Layer_1-2" data-name="Layer 1"><path class="cls-1" d="M176.37,172.36c-15.73,5-29.94,2.75-43.72-3.49-12-5.42-22.19-13.33-31.67-22.35-2.42-2.31-2.22-3.53.1-5.71,7.82-7.34,15.88-14.47,22.6-22.91,24.07-30.26,9.58-73.38-27.55-82-20.68-4.81-41.22,3.06-53,20.29a49.22,49.22,0,0,0,.79,56.64c2.59,3.64,2.34,6,.06,9.35-4.28,6.17-9.6,11.45-14.92,17.78,11.42.66,22,.31,32.21-3.24,2.19-.76,3.31-.69,5.08,1.14,5.36,5.55,11,10.79,16.82,15.92,2.37,2.11,2,3.25-.21,5.13-10.5,9.09-28.13,11-40.06,2.55C6.7,135.8-10,99.21,6.24,54.2,18.67,19.88,55.42-2.66,91.94.25,130.2,3.31,160.48,29.07,168.24,66c5,23.69.73,46-13,66.2-.53.78-1.06,1.56-1.66,2.28-7.65,9-7.71,9.73-1.11,19.56C158.15,162.45,165.75,168.37,176.37,172.36Z"/><path class="cls-1" d="M384.26,165c-13.94,0-27.89.24-41.83-.06-17.39-.38-31-13.93-32.67-32-1.65-17.71,9.44-34,25.69-37.5a46.73,46.73,0,0,1,9.55-.66c16-.06,32-.13,48.05,0,3.64,0,4.84-.89,4.79-4.69-.15-10.48-6.48-17.65-17-17.78q-28.83-.37-57.66,0c-4.66.06-5.8-1.44-5.54-5.74.33-5.44.2-10.92,0-16.37-.09-3,.61-4.35,4-4.32,23,.26,46-.1,69,.54S429.61,63,430.2,85.94c.65,25,.33,50.08.59,75.12,0,3.28-1,4.06-4.13,4-14.13-.15-28.27-.07-42.4-.07Zm-9-24.47v.1c6.2,0,12.41-.11,18.61,0,2.85.08,4-.72,3.92-3.77-.21-5.25-.14-10.52,0-15.78.07-2.49-.39-3.72-3.33-3.69-12.78.16-25.58-.11-38.36.17-7.37.15-12.66,5.48-12.62,11.82,0,6,5.23,10.77,12.6,11.05C362.48,140.71,368.88,140.51,375.27,140.51Z"/><path class="cls-2" d="M790.13,165c-13.76,0-27.52.23-41.27-.07-17.38-.37-31.06-13.46-33.05-31.1-1.95-17.36,8.49-33.72,24.25-38.18a30.6,30.6,0,0,1,8.39-.84c16.77,0,33.54-.17,50.31,0,4,0,5.17-1.19,5.08-5.11-.25-10.38-6.64-17.23-17.38-17.37q-28.28-.34-56.54-.06c-4.64.06-6.39-1.11-6-5.93.41-5.43.2-10.91.07-16.37-.07-2.87.94-4,3.91-4,23.75.21,47.52-.39,71.22.66,21.29.94,36.51,17,37.12,38.28.73,25.59.44,51.21.74,76.81,0,3.67-2.13,3.28-4.42,3.28Zm-8.63-47.49v0c-6.39,0-12.78-.17-19.16,0-7.29.25-12.81,5.42-12.83,11.66,0,6,5.25,11,12.54,11.11,12.58.24,25.16,0,37.75.17,2.83,0,4.08-.84,4-3.84-.17-5.07-.24-10.15,0-15.2.17-3.38-1.25-4.13-4.28-4C793.52,117.63,787.51,117.51,781.5,117.51Z"/><path class="cls-1" d="M295.74,105.76c0,18.08-.1,36.17.08,54.25,0,3.72-.6,5.16-4.79,5.11-21.49-.24-43,0-64.47-.21a76.55,76.55,0,0,1-15.71-1.51A33.25,33.25,0,0,1,185,132.19c-.66-27.67-.25-55.37-.42-83.06,0-3.14,1.62-3.17,3.88-3.16,7.73.06,15.47.25,23.19-.08,4-.16,5,1.07,5,5-.18,23.54-.09,47.09-.08,70.63,0,10.81,6.16,17.16,17,17.32,8.48.12,17-.22,25.44.13,4.21.17,4.93-1.43,4.91-5.15-.12-27.31.11-54.63-.2-81.94-.06-5.23,1.55-6.28,6.3-6,7.14.4,14.33.33,21.48,0,3.65-.15,4.36,1.14,4.34,4.49C295.66,68.84,295.74,87.3,295.74,105.76Z"/><path class="cls-1" d="M660.87,165c-14.53,0-28.28-.08-42,.07-2.5,0-3.75-1.26-5.1-2.85-14.75-17.35-29.45-34.76-44.35-52-2.25-2.6-2-4.09,0-6.56q22.27-27.37,44.29-55c1.73-2.16,3.4-3.54,6.5-3.5,13.18.2,26.38.08,39.55.08.86,2.1-1,2.77-1.84,3.76-15.61,17.62-31.2,35.26-47,52.73-2.73,3-3.18,4.85-.09,8.13,13.82,14.66,27.33,29.62,40.91,44.5C654.68,157.65,657.45,161,660.87,165Z"/><path class="cls-1" d="M532.82,84.38c0-25,.08-50.08-.08-75.13,0-3.88.93-5.19,5-5,7.71.35,15.45.23,23.17,0,3-.07,4.3.48,4.3,3.92q-.15,76.53,0,153.07c0,3-.88,3.86-3.82,3.8-7.91-.18-15.84-.29-23.74,0-4,.17-4.94-1.18-4.92-5,.17-25.23.09-50.46.09-75.69Z"/><path class="cls-1" d="M481.51,59.8c7.12-12.21,18.06-15.73,30.9-15.71,3.73,0,5.26,1.41,5,5.4-.36,6-.26,12,0,18.05.13,3.24-.93,4.18-4.13,4.11-8.85-.2-17.7.14-26.54-.16-4.21-.14-5.41,1.08-5.38,5.36.2,27.65,0,55.31.21,83,0,4.17-.91,5.52-5.22,5.31-7.7-.38-15.44-.19-23.15-.06-2.66.05-3.58-.76-3.58-3.5q.14-55.87,0-111.75c0-3,.92-3.93,3.86-3.88,7.9.14,15.82.21,23.71-.07,3.63-.13,4.58,1.2,4.33,4.52C481.33,53.5,481.51,56.66,481.51,59.8Z"/><path class="cls-2" d="M852.64,105.05c0-18.06.11-36.13-.09-54.19,0-4,1.3-5.24,5.19-5.13q11.29.35,22.59,0c3.55-.11,4.41,1.18,4.4,4.56q-.15,55.31,0,110.63c0,3.28-1.1,4.23-4.22,4.17-7.53-.15-15.07-.26-22.59.06-4.17.17-5.52-1-5.47-5.34.23-18.25.1-36.5.1-54.75Z"/><path class="cls-2" d="M40.49,134.84c3-4.05,5.92-7.9,8.75-11.8s3.44-7.2-.06-11.9c-11-14.72-12.32-31-3.82-47.26C54,47.39,68.45,39.36,86.92,39.72c23.07.45,41.72,19.2,43.25,42.56,1.48,22.53-15.27,43-38,46.73-4.53.74-9,1.22-13.42-.06-5.67-1.65-10.7-.84-16.1,1.8A45.38,45.38,0,0,1,40.49,134.84ZM55.21,125c3.57,1.35,6.12-.19,8.27-1.94,4.44-3.62,8.75-4,14.47-2.62,26,6,49.17-17.77,43.13-43.82-3.25-14.05-15.24-25.77-28.64-28-16.15-2.69-30.94,4-39.14,17.68-7.76,13-6.92,28.7,3,41.17,3.23,4.06,3.55,7.48,1.58,11.73Z"/><path class="cls-1" d="M686.18,165c-4.14,0-8.3-.19-12.42.06-3.11.19-3.79-1-3.71-3.9.18-7.14.2-14.3,0-21.44-.08-3,1.07-3.88,3.92-3.84q12.42.21,24.85,0c2.78,0,4.09.57,4,3.72-.21,7.33-.2,14.68,0,22,.07,2.88-1.11,3.48-3.64,3.4C694.84,164.91,690.51,165,686.18,165Z"/><path class="cls-2" d="M869.54,4.33c4.26.57,10.93-2.29,14.24,1.22,3,3.18.81,9.69.86,14.72.11,12.39,0,12.39-12.24,12.39-5.27,0-10.54-.13-15.8,0-2.93.1-4.07-1-4-3.9.1-6.95.12-13.91,0-20.87-.05-2.68.95-3.72,3.61-3.64C860.34,4.42,864.48,4.33,869.54,4.33Z"/><path class="cls-2" d="M106.75,68.61c-.13,1.84-1.42,3-2.47,4.33-7.17,8.94-14.47,17.78-21.51,26.82-2.88,3.7-5.37,4.28-8.59.57S67.61,93.1,64.3,89.5c-1.72-1.87-2.55-3.91-.42-5.91s4.37-1.9,6.36.4a3,3,0,0,0,.38.42c2.84,2.24,4.32,7.77,7.78,7,2.89-.69,4.86-5.33,7.21-8.24C90,77.71,94.28,72.26,98.68,66.87c1.34-1.64,3-3,5.36-2.11A3.75,3.75,0,0,1,106.75,68.61Z"/></g></g></svg>