<svg xmlns="http://www.w3.org/2000/svg" width="77" height="76" viewBox="0 0 77 76" version="1.1"><path d="M 29.007 18.593 C 18.231 23.266, 13.860 35.797, 19.383 46.184 C 21.943 50.998, 21.737 52.280, 17.689 56.750 C 15.667 58.982, 15.667 59, 17.644 59 C 18.740 59, 22.081 58.261, 25.068 57.357 C 28.056 56.453, 32.760 55.806, 35.522 55.919 C 44.162 56.272, 50.440 52.414, 54.104 44.500 C 61.412 28.715, 44.922 11.692, 29.007 18.593 M 27.843 24.407 C 20.964 29.182, 19.233 39.212, 24.198 45.525 C 26.008 47.825, 26.175 48.698, 25.268 51.102 L 24.192 53.952 27.187 52.404 C 29.237 51.343, 31.408 51.062, 34.070 51.512 C 39.167 52.373, 44.322 50.594, 47.429 46.902 C 52.909 40.389, 52.587 32.120, 46.619 26.152 C 43.556 23.089, 42.353 22.586, 37.301 22.252 C 32.352 21.925, 30.963 22.242, 27.843 24.407 M 37.973 33.535 L 33.703 39.070 31.402 36.908 C 29.181 34.821, 26 34.836, 26 36.934 C 26 38.438, 32.033 45, 33.416 45 C 34.884 45, 46 31.133, 46 29.301 C 46 26.215, 41.988 28.331, 37.973 33.535" stroke="none" fill="#1cb434" fill-rule="evenodd"/><path d="M 29.132 1.078 C 18.542 3.159, 7.954 11.592, 3.204 21.730 C 0.830 26.795, 0.500 28.722, 0.500 37.500 C 0.500 46.494, 0.783 48.053, 3.314 53 C 6.529 59.286, 14.864 68.233, 19.596 70.478 C 21.359 71.315, 24.534 71.998, 26.651 71.996 C 30.385 71.993, 37 68.909, 37 67.171 C 37 66.699, 34.819 64.474, 32.154 62.227 C 27.588 58.377, 27.083 58.193, 23.404 59.047 C 21.257 59.545, 18.242 59.963, 16.704 59.976 L 13.908 60 17.387 55.444 L 20.866 50.888 18.783 47.357 C 14.222 39.627, 14.797 30.129, 20.223 23.546 C 32.548 8.593, 57.025 17.690, 56.991 37.210 C 56.979 43.828, 53.381 50.501, 46.207 57.210 L 41.170 61.921 44.960 65.345 C 50.315 70.183, 56.694 73.707, 62.402 74.982 C 69.957 76.669, 80.514 74.453, 73.750 72.600 C 70.716 71.769, 67.576 68.995, 65.145 64.999 L 63.134 61.691 65.537 58.540 C 74.611 46.644, 75.232 28.465, 66.975 16.464 C 58.277 3.822, 44.230 -1.890, 29.132 1.078" stroke="none" fill="#fcfcfc" fill-rule="evenodd"/></svg>