<svg xmlns="http://www.w3.org/2000/svg" width="376" height="76" viewBox="0 0 376 76" version="1.1"><path d="M 362 8.500 L 362 15 369 15 L 376 15 376 8.500 L 376 2 369 2 L 362 2 362 8.500 M 29.007 18.593 C 18.231 23.266, 13.860 35.797, 19.383 46.184 C 21.943 50.998, 21.737 52.280, 17.689 56.750 C 15.667 58.982, 15.667 59, 17.644 59 C 18.740 59, 22.081 58.261, 25.068 57.357 C 28.056 56.453, 32.760 55.806, 35.522 55.919 C 44.162 56.272, 50.440 52.414, 54.104 44.500 C 61.412 28.715, 44.922 11.692, 29.007 18.593 M 307 25.922 L 307 32 321.961 32 C 336.064 32, 337.039 32.126, 338.961 34.189 C 340.082 35.392, 341 37.141, 341 38.075 C 341 39.572, 339.365 39.818, 327.182 40.153 C 311.905 40.572, 309.584 41.354, 305.956 47.304 C 303.339 51.596, 303.309 60.432, 305.898 64.359 C 310.073 70.692, 311.357 70.986, 334.826 70.993 L 356.153 71 355.826 51.750 C 355.461 30.203, 354.980 28.376, 348.332 23.302 L 344.661 20.500 325.831 20.172 L 307 19.844 307 25.922 M 362 45.500 L 362 71 369 71 L 376 71 376 45.500 L 376 20 369 20 L 362 20 362 45.500 M 27.843 24.407 C 20.964 29.182, 19.233 39.212, 24.198 45.525 C 26.008 47.825, 26.175 48.698, 25.268 51.102 L 24.192 53.952 27.187 52.404 C 29.237 51.343, 31.408 51.062, 34.070 51.512 C 39.167 52.373, 44.322 50.594, 47.429 46.902 C 52.909 40.389, 52.587 32.120, 46.619 26.152 C 43.556 23.089, 42.353 22.586, 37.301 22.252 C 32.352 21.925, 30.963 22.242, 27.843 24.407 M 37.973 33.535 L 33.703 39.070 31.402 36.908 C 29.181 34.821, 26 34.836, 26 36.934 C 26 38.438, 32.033 45, 33.416 45 C 34.884 45, 46 31.133, 46 29.301 C 46 26.215, 41.988 28.331, 37.973 33.535 M 320.571 52.571 C 318.426 54.717, 318.596 57.714, 320.934 58.965 C 321.998 59.534, 326.948 60, 331.934 60 L 341 60 341 55.500 L 341 51 331.571 51 C 324.333 51, 321.778 51.365, 320.571 52.571" stroke="none" fill="#1cb434" fill-rule="evenodd"/><path d="M 29.132 1.078 C 18.542 3.159, 7.954 11.592, 3.204 21.730 C 0.830 26.795, 0.500 28.722, 0.500 37.500 C 0.500 46.494, 0.783 48.053, 3.314 53 C 6.529 59.286, 14.864 68.233, 19.596 70.478 C 21.359 71.315, 24.534 71.998, 26.651 71.996 C 30.385 71.993, 37 68.909, 37 67.171 C 37 66.699, 34.819 64.474, 32.154 62.227 C 27.588 58.377, 27.083 58.193, 23.404 59.047 C 21.257 59.545, 18.242 59.963, 16.704 59.976 L 13.908 60 17.387 55.444 L 20.866 50.888 18.783 47.357 C 14.222 39.627, 14.797 30.129, 20.223 23.546 C 32.548 8.593, 57.025 17.690, 56.991 37.210 C 56.979 43.828, 53.381 50.501, 46.207 57.210 L 41.170 61.921 44.960 65.345 C 50.315 70.183, 56.694 73.707, 62.402 74.982 C 69.957 76.669, 80.514 74.453, 73.750 72.600 C 70.716 71.769, 67.576 68.995, 65.145 64.999 L 63.134 61.691 65.537 58.540 C 74.611 46.644, 75.232 28.465, 66.975 16.464 C 58.277 3.822, 44.230 -1.890, 29.132 1.078 M 226 36.500 L 226 71 233.468 71 L 240.937 71 241.218 59.391 L 241.500 47.782 251.304 59.391 L 261.108 71 271.054 71 C 276.524 71, 281 70.767, 281 70.481 C 281 70.196, 275.989 64.553, 269.864 57.941 L 258.727 45.919 260.663 43.710 C 261.728 42.494, 266.186 37.450, 270.570 32.500 C 282.909 18.569, 282.835 20, 271.216 20 L 261.187 20 251.094 32.627 L 241 45.255 241 23.627 L 241 2 233.500 2 L 226 2 226 36.500 M 211.021 20.116 C 209.657 20.660, 207.744 21.826, 206.771 22.708 C 205.129 24.194, 205 24.154, 205 22.155 C 205 20.154, 204.501 20, 198 20 L 191 20 191 45.500 L 191 71 198 71 L 205 71 205 51.500 L 205 32 212.500 32 L 220 32 220 25.500 L 220 19 216.750 19.063 C 214.963 19.098, 212.384 19.572, 211.021 20.116 M 78 39.343 C 78 57.537, 78.135 58.941, 80.275 62.987 C 84.140 70.297, 86.551 71, 107.734 71 L 126 71 126 45.500 L 126 20 119 20 L 112 20 112 39.500 L 112 59 104.155 59 C 92.787 59, 93 59.407, 93 37.671 L 93 20 85.500 20 L 78 20 78 39.343 M 135 26 L 135 32 149.845 32 C 165.773 32, 166.793 32.310, 168.418 37.653 C 169.064 39.775, 168.870 39.812, 155.108 40.153 C 142.887 40.457, 140.798 40.758, 138.383 42.562 C 133.925 45.893, 131.997 49.203, 131.422 54.514 C 130.760 60.626, 132.945 65.421, 137.898 68.730 C 141.166 70.913, 142.114 71, 162.648 71 L 184 71 184 55.636 C 184 31.978, 182.082 25.758, 173.599 21.905 C 170.116 20.324, 166.906 20.041, 152.250 20.022 L 135 20 135 26 M 148.750 52.080 C 146.741 53.250, 146.432 57.032, 148.200 58.800 C 148.970 59.570, 152.911 60, 159.200 60 L 169 60 169 55.500 L 169 51 159.750 51.030 C 154.662 51.047, 149.713 51.519, 148.750 52.080 M 284 64.500 L 284 71 291.500 71 L 299 71 299 64.500 L 299 58 291.500 58 L 284 58 284 64.500" stroke="none" fill="#fcfcfc" fill-rule="evenodd"/></svg>