<svg id="Layer_1" data-name="Layer 1" xmlns="http://www.w3.org/2000/svg" viewBox="0 0 303.72 76.96"><defs><style>.cls-1{fill:#fff;}</style></defs><path class="cls-1" d="M38.94,7.41V22.6H60.71V33.23H38.94V65.14c0,5.69,2.65,7.59,8.35,7.59H98.14c5.19,0,7.22-2,7.22-5.82C105.36,55.77,67,60.07,67,39.06,67,28.29,74.47,22.6,87.76,22.6H114V33.23H85.87c-5.45,0-7.1,1.52-7.22,5.32C78.52,49.06,117,44.63,117,66.4c0,11.53-8.1,17-18.87,17H45.77c-11.4,0-18-7.6-18-19.62V7.41Z" transform="translate(-5.59 -7.41)"/><path class="cls-1" d="M22.28,27.77a8.35,8.35,0,1,1-8.34-8.34A8.35,8.35,0,0,1,22.28,27.77Z" transform="translate(-5.59 -7.41)"/><rect class="cls-1" x="115.12" y="15.13" width="11.51" height="60.83"/><path class="cls-1" d="M187.11,22.55v6.71a28.94,28.94,0,0,0-19.58-7.69c-16.52,0-29.9,14.06-29.9,31.4S151,84.36,167.53,84.36a28.94,28.94,0,0,0,19.58-7.69v6.71h11.51V22.55Zm-19.2,51.08c-10.6,0-19.2-9.25-19.2-20.66s8.6-20.67,19.2-20.67,19.2,9.26,19.2,20.67S178.51,73.63,167.91,73.63Z" transform="translate(-5.59 -7.41)"/><path class="cls-1" d="M217.52,23.48h-3.16V32h-1.13V23.48h-3.15V22.43h7.44Z" transform="translate(-5.59 -7.41)"/><path class="cls-1" d="M219.53,22.43h6v1.05h-4.87v3h4.55v1.06h-4.55v3.39h5.11v1h-6.24Z" transform="translate(-5.59 -7.41)"/><path class="cls-1" d="M234.89,24.4a2.94,2.94,0,0,0-2.39-1.16,3.79,3.79,0,0,0-3.64,4,3.72,3.72,0,0,0,3.64,4,3.36,3.36,0,0,0,2.76-1.34l.85.72a4.25,4.25,0,0,1-3.61,1.67,4.82,4.82,0,0,1-4.85-5,4.82,4.82,0,0,1,4.85-5,4.12,4.12,0,0,1,3.37,1.49Z" transform="translate(-5.59 -7.41)"/><path class="cls-1" d="M238.37,22.43h1.13v4h5.1v-4h1.13V32H244.6V27.53h-5.1V32h-1.13Z" transform="translate(-5.59 -7.41)"/><path class="cls-1" d="M248.78,22.43h1.43l5.52,7.93h0V22.43h1.13V32h-1.43l-5.52-7.92h0V32h-1.13Z" transform="translate(-5.59 -7.41)"/><path class="cls-1" d="M259.39,27.2a5,5,0,1,1,10,0,5,5,0,1,1-10,0Zm8.76,0a3.78,3.78,0,1,0-7.55,0,3.78,3.78,0,1,0,7.55,0Z" transform="translate(-5.59 -7.41)"/><path class="cls-1" d="M271.86,22.43H273v8.49h4.36v1h-5.5Z" transform="translate(-5.59 -7.41)"/><path class="cls-1" d="M278.73,27.2a5,5,0,1,1,10,0,5,5,0,1,1-10,0Zm8.76,0a3.78,3.78,0,1,0-7.55,0,3.78,3.78,0,1,0,7.55,0Z" transform="translate(-5.59 -7.41)"/><path class="cls-1" d="M299.32,31.33a7.48,7.48,0,0,1-3.58.89,4.84,4.84,0,0,1-5.09-5,4.92,4.92,0,0,1,5.13-5,4.54,4.54,0,0,1,3.37,1.25l-.85.89a3.57,3.57,0,0,0-2.6-1.09,3.78,3.78,0,0,0-3.84,4,3.81,3.81,0,0,0,3.95,4,5.61,5.61,0,0,0,2.37-.56V27.69H296V26.64h3.33Z" transform="translate(-5.59 -7.41)"/><path class="cls-1" d="M304.62,27.86l-3.56-5.43h1.44l2.68,4.31L308,22.43h1.36l-3.56,5.43V32h-1.13Z" transform="translate(-5.59 -7.41)"/><path class="cls-1" d="M232.73,41.23a2,2,0,0,0-1.74-.88c-1,0-2,.48-2,1.61,0,.88.49,1.27,2,1.75s2.86,1,2.86,2.83-1.63,2.79-3.36,2.79A3.46,3.46,0,0,1,227.52,48l1-.79a2.33,2.33,0,0,0,2,1.06c1,0,2.08-.56,2.08-1.66s-.8-1.37-2.5-1.94c-1.35-.44-2.37-1-2.37-2.63,0-1.83,1.58-2.75,3.25-2.75a3.29,3.29,0,0,1,2.67,1.12Z" transform="translate(-5.59 -7.41)"/><path class="cls-1" d="M236.37,39.55h6V40.6H237.5v3h4.55v1H237.5V48h5.11v1.05h-6.24Z" transform="translate(-5.59 -7.41)"/><path class="cls-1" d="M245,39.55h2.44c1.85,0,3.8.27,3.8,2.63a2.49,2.49,0,0,1-2.38,2.52l2.71,4.39h-1.39l-2.59-4.29h-1.46v4.29H245Zm1.13,4.2h1c1.26,0,2.89,0,2.89-1.57,0-1.38-1.2-1.58-2.31-1.58h-1.59Z" transform="translate(-5.59 -7.41)"/><path class="cls-1" d="M252.41,39.55h1.28l2.94,7.84h0l3-7.84h1.19l-3.73,9.54h-1.09Z" transform="translate(-5.59 -7.41)"/><path class="cls-1" d="M262.63,39.55h1.13v9.54h-1.13Z" transform="translate(-5.59 -7.41)"/><path class="cls-1" d="M273.49,41.51a3,3,0,0,0-2.38-1.16,3.8,3.8,0,0,0-3.64,4,3.71,3.71,0,0,0,3.64,4A3.35,3.35,0,0,0,273.87,47l.85.71a4.23,4.23,0,0,1-3.61,1.67,5,5,0,0,1,0-10,4.15,4.15,0,0,1,3.37,1.5Z" transform="translate(-5.59 -7.41)"/><path class="cls-1" d="M277,39.55h6V40.6h-4.86v3h4.54v1h-4.54V48h5.11v1.05H277Z" transform="translate(-5.59 -7.41)"/><path class="cls-1" d="M290.17,41.23a2,2,0,0,0-1.74-.88c-1,0-2,.48-2,1.61,0,.88.48,1.27,2,1.75s2.86,1,2.86,2.83-1.64,2.79-3.36,2.79A3.45,3.45,0,0,1,285,48l1-.79a2.31,2.31,0,0,0,2,1.06c1,0,2.07-.56,2.07-1.66s-.79-1.37-2.49-1.94c-1.35-.44-2.37-1-2.37-2.63,0-1.83,1.57-2.75,3.24-2.75a3.28,3.28,0,0,1,2.67,1.12Z" transform="translate(-5.59 -7.41)"/><path class="cls-1" d="M213.13,56.66h1.13v9.55h-1.13Z" transform="translate(-5.59 -7.41)"/><path class="cls-1" d="M217.31,56.66h1.43l5.53,7.93h0V56.66h1.14v9.55H224l-5.53-7.93h0v7.93h-1.13Z" transform="translate(-5.59 -7.41)"/><path class="cls-1" d="M228.3,56.66H232a4.78,4.78,0,0,1,0,9.55H228.3Zm1.13,8.49h2.16c2.18,0,3.84-1.1,3.84-3.72s-1.66-3.72-3.84-3.72h-2.16Z" transform="translate(-5.59 -7.41)"/><path class="cls-1" d="M246.3,62.57c0,2.07-1,3.88-3.6,3.88s-3.6-1.81-3.6-3.88V56.66h1.13V62.4c0,1.54.57,3,2.47,3s2.47-1.46,2.47-3V56.66h1.13Z" transform="translate(-5.59 -7.41)"/><path class="cls-1" d="M253.84,58.35a2,2,0,0,0-1.74-.88c-1,0-2,.47-2,1.6,0,.88.48,1.27,2,1.76s2.86,1,2.86,2.83-1.63,2.79-3.35,2.79a3.47,3.47,0,0,1-2.94-1.32l1-.8a2.31,2.31,0,0,0,2,1.07c1,0,2.08-.57,2.08-1.66s-.8-1.38-2.49-1.94c-1.35-.45-2.38-1-2.38-2.63,0-1.84,1.58-2.75,3.25-2.75a3.28,3.28,0,0,1,2.67,1.12Z" transform="translate(-5.59 -7.41)"/><path class="cls-1" d="M263.89,57.71h-3.16v8.5H259.6v-8.5h-3.16V56.66h7.45Z" transform="translate(-5.59 -7.41)"/><path class="cls-1" d="M265.9,56.66h2.44c1.84,0,3.8.27,3.8,2.63a2.5,2.5,0,0,1-2.39,2.52l2.71,4.4h-1.39l-2.59-4.29H267v4.29H265.9ZM267,60.87h1c1.25,0,2.88,0,2.88-1.58,0-1.38-1.2-1.58-2.3-1.58H267Z" transform="translate(-5.59 -7.41)"/><path class="cls-1" d="M276.56,62.09,273,56.66h1.45L277.13,61l2.76-4.31h1.37l-3.56,5.43v4.12h-1.14Z" transform="translate(-5.59 -7.41)"/><path class="cls-1" d="M215.55,73.78h1.06l4.06,9.54h-1.32l-1-2.34h-4.77l-1,2.34h-1.28Zm.51,1.45h0l-2,4.69H218Z" transform="translate(-5.59 -7.41)"/><path class="cls-1" d="M227.14,75.46a2,2,0,0,0-1.73-.87c-1,0-2,.47-2,1.6,0,.88.49,1.27,2,1.75s2.86,1,2.86,2.83-1.63,2.79-3.36,2.79a3.46,3.46,0,0,1-2.94-1.32l1-.79a2.33,2.33,0,0,0,2,1.06c1,0,2.07-.56,2.07-1.66s-.79-1.37-2.49-1.94c-1.35-.44-2.37-1-2.37-2.63,0-1.83,1.57-2.75,3.25-2.75a3.29,3.29,0,0,1,2.67,1.12Z" transform="translate(-5.59 -7.41)"/><path class="cls-1" d="M235.32,75.46a2,2,0,0,0-1.74-.87c-1,0-2,.47-2,1.6,0,.88.49,1.27,2,1.75s2.86,1,2.86,2.83-1.63,2.79-3.36,2.79a3.46,3.46,0,0,1-2.94-1.32l1-.79a2.33,2.33,0,0,0,2,1.06c1,0,2.08-.56,2.08-1.66s-.8-1.37-2.5-1.94c-1.35-.44-2.37-1-2.37-2.63,0-1.83,1.58-2.75,3.25-2.75a3.29,3.29,0,0,1,2.67,1.12Z" transform="translate(-5.59 -7.41)"/><path class="cls-1" d="M238.41,78.55a5,5,0,1,1,5,5A4.85,4.85,0,0,1,238.41,78.55Zm8.76,0a3.78,3.78,0,1,0-3.77,4A3.77,3.77,0,0,0,247.17,78.55Z" transform="translate(-5.59 -7.41)"/><path class="cls-1" d="M257.57,75.74a3,3,0,0,0-2.39-1.15,3.79,3.79,0,0,0-3.64,4,3.71,3.71,0,0,0,3.64,4,3.35,3.35,0,0,0,2.76-1.33l.85.71a4.23,4.23,0,0,1-3.61,1.67,5,5,0,0,1,0-10,4.15,4.15,0,0,1,3.37,1.5Z" transform="translate(-5.59 -7.41)"/><path class="cls-1" d="M261.05,73.78h1.13v9.54h-1.13Z" transform="translate(-5.59 -7.41)"/><path class="cls-1" d="M268.33,73.78h1.06l4.06,9.54h-1.32l-1-2.34h-4.77l-1,2.34h-1.28Zm.51,1.45h0l-2,4.69h3.9Z" transform="translate(-5.59 -7.41)"/><path class="cls-1" d="M280.56,74.83h-3.15v8.49h-1.14V74.83h-3.15v-1h7.44Z" transform="translate(-5.59 -7.41)"/><path class="cls-1" d="M282.57,73.78h1.13v9.54h-1.13Z" transform="translate(-5.59 -7.41)"/><path class="cls-1" d="M286.2,78.55a5,5,0,1,1,5,5A4.85,4.85,0,0,1,286.2,78.55Zm8.76,0a3.78,3.78,0,1,0-3.77,4A3.76,3.76,0,0,0,295,78.55Z" transform="translate(-5.59 -7.41)"/><path class="cls-1" d="M298.67,73.78h1.43l5.53,7.92h0V73.78h1.13v9.54h-1.43l-5.53-7.93h0v7.93h-1.13Z" transform="translate(-5.59 -7.41)"/><path class="cls-1" d="M219.13,47.73a5,5,0,0,1-1.24,1.13,3,3,0,0,1-1.62.41,3.71,3.71,0,0,1-1.16-.19,2.94,2.94,0,0,1-1-.53,2.7,2.7,0,0,1-.66-.86,2.71,2.71,0,0,1-.08-2.08,2.86,2.86,0,0,1,.46-.77,3.2,3.2,0,0,1,.67-.6,6,6,0,0,1,.82-.47,6.34,6.34,0,0,1-.81-1,2.22,2.22,0,0,1-.34-1.21,2,2,0,0,1,.21-.94,1.85,1.85,0,0,1,.54-.69,2.43,2.43,0,0,1,.78-.42,3.26,3.26,0,0,1,1-.14,3,3,0,0,1,.91.13,2.81,2.81,0,0,1,.77.4,2,2,0,0,1,.52.66,2.27,2.27,0,0,1,.18.93,1.86,1.86,0,0,1-.18.82,2.74,2.74,0,0,1-.47.66,3.71,3.71,0,0,1-.65.52c-.24.16-.48.3-.72.43l2,2.15,1.29-2.15h1.28l-1.84,2.94L222,49.1h-1.55Zm-3.08-3.27c-.2.11-.41.23-.6.36a2.88,2.88,0,0,0-.54.44,1.81,1.81,0,0,0-.4.55,1.74,1.74,0,0,0-.14.69,1.68,1.68,0,0,0,.55,1.28,1.93,1.93,0,0,0,.59.38,2,2,0,0,0,.72.13,2,2,0,0,0,.67-.1,2.86,2.86,0,0,0,.58-.29c.17-.13.34-.27.5-.42s.31-.33.46-.51Zm.29-1.23.55-.31a3.3,3.3,0,0,0,.51-.36,1.75,1.75,0,0,0,.38-.48,1.24,1.24,0,0,0,.15-.62,1,1,0,0,0-.36-.82,1.28,1.28,0,0,0-.85-.3,1.47,1.47,0,0,0-1,.35,1.16,1.16,0,0,0-.4.93,1.18,1.18,0,0,0,.21.7,5,5,0,0,0,.45.56Z" transform="translate(-5.59 -7.41)"/></svg>